<?xml version="1.0" standalone="no"?>
<!DOCTYPE svg PUBLIC "-//W3C//DTD SVG 20010904//EN"
 "http://www.w3.org/TR/2001/REC-SVG-20010904/DTD/svg10.dtd">
<svg version="1.0" xmlns="http://www.w3.org/2000/svg"
 width="400.000000pt" height="400.000000pt" viewBox="0 0 400.000000 400.000000"
 preserveAspectRatio="xMidYMid meet">

<g transform="translate(0.000000,400.000000) scale(0.100000,-0.100000)"
fill="#000000" stroke="none">
<path d="M1887 3462 c-26 -2 -35 -7 -30 -15 4 -7 -1 -6 -11 2 -13 11 -16 11
-14 2 2 -8 -5 -15 -16 -16 -30 -6 -37 -19 -20 -43 13 -19 19 -21 30 -11 12 10
15 10 12 -2 -2 -8 3 -12 12 -10 8 2 24 5 35 7 11 1 22 3 24 3 2 1 -3 9 -10 18
-8 10 -9 14 -2 10 6 -4 14 -3 17 2 4 5 20 7 37 4 17 -2 29 -1 26 5 -4 5 0 9 8
9 8 0 12 -4 9 -9 -3 -4 2 -8 11 -8 9 0 14 4 11 8 -2 4 6 8 20 8 24 0 32 -10
15 -20 -5 -4 -12 0 -14 6 -4 9 -6 7 -6 -3 -1 -9 -9 -16 -18 -16 -46 0 -64 -4
-58 -12 3 -6 13 -10 23 -10 27 0 51 -6 62 -17 7 -7 0 -11 -22 -11 -18 0 -39 7
-47 15 -13 12 -16 12 -27 -2 -11 -15 -12 -15 -18 0 -9 23 -8 26 7 18 6 -4 9
-4 5 1 -4 4 -3 13 2 20 7 8 5 12 -5 12 -8 0 -11 -5 -8 -10 3 -6 1 -7 -5 -3 -6
4 -9 -3 -7 -19 1 -14 -2 -28 -8 -32 -6 -3 -7 -1 -4 4 8 13 -26 23 -42 14 -6
-4 -42 -7 -79 -6 -65 2 -67 3 -64 26 4 23 3 24 -11 4 -9 -11 -13 -24 -10 -29
4 -5 1 -6 -6 -2 -6 4 -9 11 -6 16 8 13 -21 6 -41 -10 -16 -13 -17 -13 -10 0 4
8 1 6 -8 -4 -8 -10 -13 -23 -10 -27 3 -5 -2 -6 -11 -3 -13 5 -13 9 -3 23 12
14 11 15 -5 2 -14 -11 -15 -17 -5 -30 7 -9 8 -13 4 -9 -5 4 -15 3 -23 -3 -7
-6 -13 -8 -13 -4 0 4 -9 -3 -21 -16 -11 -13 -18 -19 -15 -12 10 19 -10 24 -25
7 -19 -23 -19 -41 -1 -56 16 -12 16 -11 2 7 -15 20 -14 20 8 1 12 -11 21 -26
20 -35 -2 -9 3 -15 10 -13 7 1 15 -5 18 -13 3 -8 10 -12 15 -9 5 3 9 1 9 -5 0
-13 43 -42 67 -45 10 -2 18 -8 18 -15 0 -7 8 -18 17 -25 10 -7 15 -16 11 -20
-4 -4 0 -4 10 0 11 4 17 1 17 -7 0 -13 44 -47 99 -77 20 -10 31 -10 53 -1 31
13 52 4 28 -11 -9 -6 -10 -10 -3 -10 6 0 18 -6 26 -14 8 -8 42 -18 76 -22 54
-6 61 -5 55 10 -3 9 -2 16 4 16 16 0 22 -28 7 -34 -8 -3 -12 -12 -9 -21 5 -12
-2 -15 -34 -15 -47 0 -50 -15 -10 -60 14 -16 23 -32 19 -35 -3 -4 -1 -6 4 -5
6 1 13 1 18 0 4 -1 13 -3 20 -4 6 0 12 -5 12 -11 0 -19 16 -35 27 -29 6 4 8 2
5 -3 -4 -6 15 -28 41 -49 26 -22 58 -50 71 -64 13 -14 21 -18 16 -10 -4 8 6 2
24 -15 17 -16 29 -35 26 -43 -2 -7 0 -10 5 -7 10 6 14 -7 11 -32 -3 -20 3 -17
73 41 l66 54 -40 -5 c-32 -5 -41 -2 -46 12 -4 10 -2 26 5 36 9 15 8 19 -3 19
-7 0 -16 8 -18 18 -4 12 -21 23 -50 30 -32 8 -48 19 -56 37 -7 15 -20 25 -34
26 -13 0 -17 3 -10 6 19 8 14 23 -9 23 -11 0 -17 -4 -14 -10 3 -5 -2 -10 -12
-10 -11 0 -24 -5 -31 -12 -7 -7 -12 -8 -12 -2 0 6 -18 17 -40 24 -22 7 -40 19
-40 25 0 7 -10 17 -22 24 -20 10 -18 11 17 6 22 -2 44 -10 50 -17 6 -8 36 -13
78 -14 72 -1 79 12 11 23 -21 3 -45 12 -51 21 -7 9 -13 12 -13 8 0 -4 -7 -1
-15 8 -8 8 -15 21 -15 28 1 9 5 7 14 -5 8 -10 29 -22 47 -27 25 -7 30 -7 21 2
-7 7 -12 22 -12 34 0 13 -4 26 -10 29 -5 3 -10 -1 -10 -9 0 -9 -9 -16 -20 -16
-29 0 -28 46 1 53 14 4 18 10 13 19 -4 7 -4 10 1 6 4 -4 20 -1 35 7 22 11 29
12 33 2 4 -9 7 -9 18 1 18 16 29 15 29 -3 0 -18 36 -20 46 -3 4 7 3 8 -4 4 -8
-5 -10 -2 -6 9 6 14 9 14 28 -2 11 -10 23 -19 25 -20 2 -1 -9 -7 -25 -13 l-28
-11 58 -30 c65 -32 70 -34 61 -19 -4 6 -1 17 5 26 11 12 14 12 26 -3 7 -10 14
-24 14 -30 0 -19 67 -84 82 -81 7 2 12 -3 10 -10 -3 -15 36 -51 56 -52 6 0 12
7 12 15 0 9 6 12 15 9 8 -4 22 -1 30 6 13 10 19 9 35 -5 11 -10 17 -22 14 -26
-15 -25 79 -14 156 18 22 9 27 10 63 13 28 2 29 3 7 7 -31 6 -51 23 -27 23 9
0 17 5 17 10 0 18 -31 10 -51 -12 -16 -20 -20 -21 -29 -8 -5 8 -8 21 -5 28 5
15 -24 72 -37 72 -4 0 -8 -9 -8 -20 0 -31 -20 -24 -21 8 0 15 -3 21 -6 14 -3
-8 -16 -1 -39 23 -19 20 -34 32 -34 26 0 -30 -59 17 -60 47 0 22 -16 12 -18
-12 -1 -13 5 -29 13 -36 20 -17 20 -76 -1 -84 -28 -11 -40 -6 -21 8 18 14 18
15 0 25 -17 10 -17 10 1 11 18 0 18 1 1 28 -10 15 -25 35 -34 44 -9 9 -23 25
-31 35 -14 17 -15 17 -18 0 -5 -25 -34 -17 -38 11 -3 19 1 22 26 22 30 0 40
13 18 26 -7 4 -8 3 -4 -4 5 -8 -1 -8 -23 -1 -36 13 -57 34 -41 44 6 3 7 12 3
18 -4 7 1 6 10 -2 12 -9 14 -17 8 -25 -7 -8 -5 -12 7 -12 27 -2 74 -13 80 -19
4 -3 0 -11 -8 -16 -13 -9 -12 -10 2 -5 10 3 20 1 23 -3 3 -5 14 -7 24 -4 10 3
22 0 25 -6 4 -6 12 -11 18 -11 20 0 -31 41 -52 43 -11 1 -20 4 -20 8 0 4 -18
25 -40 48 -44 45 -53 69 -19 51 27 -15 36 -6 15 15 -9 9 -16 21 -16 26 0 12
17 12 24 0 3 -5 15 -7 26 -4 11 3 20 1 20 -4 0 -4 17 -17 38 -28 20 -11 55
-30 76 -43 22 -13 45 -25 52 -26 8 -1 17 -6 21 -11 5 -4 1 -5 -7 0 -8 5 -4 -4
9 -18 14 -15 27 -24 30 -21 3 3 -1 9 -9 14 -8 5 -12 11 -10 14 8 7 33 -15 64
-57 18 -23 32 -34 36 -27 4 7 19 -2 38 -25 34 -38 44 -67 15 -44 -14 12 -16
12 -11 -1 2 -8 11 -15 20 -15 8 0 27 -13 41 -29 15 -16 30 -27 33 -23 20 20
-120 176 -253 282 -213 169 -471 271 -743 292 -52 5 -112 7 -133 5z m242 -48
c48 -3 47 -2 33 -16 -8 -8 -15 -8 -25 0 -10 9 -16 9 -25 0 -9 -9 -12 -9 -12 0
0 7 -5 11 -11 10 -6 -2 -14 3 -17 11 -3 9 0 11 8 6 7 -5 29 -9 49 -11z m86
-22 c-3 -3 -11 0 -18 7 -9 10 -8 11 6 5 10 -3 15 -9 12 -12z m165 -38 l25 -15
-25 7 c-14 3 -29 10 -34 15 -16 14 6 10 34 -7z m185 -82 c79 -44 119 -72 99
-72 -6 0 -37 16 -70 36 -32 19 -61 36 -64 36 -3 1 -22 12 -42 24 -21 13 -42
24 -48 24 -5 0 -10 4 -10 10 0 12 29 -1 135 -58z m-291 36 c-6 -10 11 -18 43
-20 15 -1 34 -6 41 -11 8 -7 12 -4 12 7 0 10 5 14 10 11 6 -4 7 -11 4 -17 -4
-6 1 -8 15 -3 12 4 21 2 21 -4 0 -6 0 -14 0 -18 0 -5 -6 -8 -12 -8 -7 0 -12
-8 -12 -17 1 -14 -2 -15 -17 -7 -22 12 -26 31 -4 23 8 -4 15 -2 15 3 0 5 -11
9 -24 9 -14 0 -23 -3 -21 -6 2 -4 -23 1 -56 9 -60 16 -73 26 -41 34 9 3 2 5
-15 6 -18 0 -33 6 -33 11 0 6 17 9 39 8 21 -2 37 -6 35 -10z m-63 -26 c-7 -2
-18 1 -23 6 -8 8 -4 9 13 5 13 -4 18 -8 10 -11z m289 -23 c0 -5 -4 -9 -10 -9
-5 0 -10 7 -10 16 0 8 5 12 10 9 6 -3 10 -10 10 -16z m-45 -57 c-8 -9 -35 20
-28 31 4 6 11 3 19 -8 8 -10 12 -21 9 -23z m-55 -67 c-7 -9 -15 -13 -19 -10
-3 3 1 10 9 15 21 14 24 12 10 -5z m30 -15 c0 -5 -2 -10 -4 -10 -3 0 -8 5 -11
10 -3 6 -1 10 4 10 6 0 11 -4 11 -10z m-400 -90 c0 -5 -7 -11 -15 -11 -30 -3
-34 -4 -46 -16 -14 -14 -69 -18 -69 -5 0 4 26 15 58 24 71 20 72 20 72 8z m5
-40 c3 -5 -1 -10 -9 -10 -9 0 -16 5 -16 10 0 6 4 10 9 10 6 0 13 -4 16 -10z
m460 0 c3 -5 -1 -10 -10 -10 -9 0 -13 5 -10 10 3 6 8 10 10 10 2 0 7 -4 10
-10z m-55 -10 c0 -5 -4 -10 -10 -10 -5 0 -10 5 -10 10 0 6 5 10 10 10 6 0 10
-4 10 -10z m80 -14 c0 -2 -8 -10 -17 -17 -16 -13 -17 -12 -4 4 13 16 21 21 21
13z m206 -93 c25 -34 9 -47 -20 -17 -9 8 -16 20 -16 25 0 15 22 10 36 -8z
m-16 -45 c0 -10 -13 -10 -34 -2 -9 3 -16 12 -16 19 0 10 5 11 25 2 14 -7 25
-15 25 -19z"/>
<path d="M815 3422 c-56 -5 -76 -13 -103 -40 -34 -34 -37 -42 -38 -127 -1 -75
27 -172 79 -270 15 -27 27 -53 27 -57 0 -4 -24 -42 -52 -86 -46 -68 -102 -172
-129 -237 -53 -129 -58 -149 -53 -193 3 -26 11 -56 18 -67 9 -15 10 -28 3 -49
-7 -21 -7 -31 1 -34 6 -2 9 -9 6 -15 -9 -24 -11 -106 -2 -101 4 3 6 11 2 17
-3 7 4 1 15 -12 12 -12 18 -28 14 -35 -11 -17 -12 -37 -2 -30 5 3 6 10 3 16
-4 7 -2 8 4 4 8 -5 9 -13 3 -24 -4 -9 -6 -23 -3 -31 3 -10 0 -11 -9 -5 -11 6
-12 5 -2 -7 9 -11 9 -25 1 -58 -9 -36 -21 -50 -82 -95 -162 -121 -271 -242
-311 -348 -17 -45 -17 -51 -1 -90 18 -46 74 -94 136 -115 129 -45 389 -40 685
12 17 3 53 10 80 15 79 14 315 70 460 110 125 34 391 122 402 133 3 4 16 7 27
7 11 0 43 9 71 20 262 103 493 198 572 235 52 25 102 45 109 45 18 0 147 -162
274 -345 185 -264 280 -466 280 -591 0 -76 -9 -98 -50 -119 -51 -26 -142 -17
-265 28 -53 19 -202 94 -238 119 -26 19 -57 19 -57 0 0 -16 282 -151 360 -172
190 -51 284 -3 282 145 0 36 -11 91 -26 138 -25 76 -144 316 -172 348 -8 8
-14 19 -14 23 0 9 -147 211 -247 339 -47 60 -83 110 -80 113 2 3 58 32 123 66
369 187 650 381 784 540 130 155 138 249 27 323 -29 20 -62 37 -73 39 -10 3
-39 9 -64 15 -61 14 -290 11 -434 -5 -65 -7 -121 -16 -124 -19 -3 -3 -1 -10 5
-16 8 -8 31 -8 79 0 115 17 333 24 421 12 122 -16 192 -46 220 -96 21 -39 21
-41 4 -92 -25 -73 -62 -123 -161 -215 -155 -146 -413 -313 -725 -472 l-110
-56 -35 38 c-19 21 -71 79 -115 128 -156 175 -493 499 -690 663 -316 263 -531
414 -750 524 -155 77 -284 117 -360 109z m160 -57 c176 -60 541 -283 761 -464
17 -14 51 -42 75 -61 152 -122 575 -510 648 -596 14 -16 78 -87 143 -158 65
-70 118 -132 118 -137 0 -9 -38 -28 -200 -101 -102 -47 -390 -159 -548 -214
-698 -245 -1348 -353 -1621 -269 -71 22 -121 70 -121 116 1 47 32 111 87 177
69 83 256 242 269 229 7 -6 -73 -130 -88 -135 -4 -2 -8 -8 -8 -14 0 -5 -16
-37 -35 -69 -19 -33 -31 -58 -26 -55 5 3 3 -11 -4 -32 -7 -20 -15 -51 -18 -69
-3 -17 -8 -36 -11 -41 -3 -6 13 -34 36 -63 37 -48 42 -51 49 -32 10 27 16 30
68 38 34 5 42 3 36 -7 -4 -7 -1 -7 7 2 16 19 38 24 38 9 0 -8 6 -7 17 2 15 12
16 12 8 -1 -8 -13 -7 -13 8 -1 14 11 20 11 34 0 12 -10 15 -11 9 -1 -6 9 -1
11 17 8 14 -2 28 -2 31 2 11 10 36 11 41 1 4 -5 18 -1 33 8 26 17 27 17 12 -2
-14 -20 -14 -20 8 -1 12 11 22 16 22 11 0 -4 7 -2 15 5 8 7 15 9 15 5 0 -4 6
-2 13 4 8 6 18 7 22 3 5 -4 5 -1 1 6 -6 10 -11 10 -22 1 -8 -6 -14 -8 -14 -4
0 4 -8 1 -17 -6 -16 -12 -17 -12 -6 2 7 9 9 20 5 24 -4 5 -1 5 6 1 6 -4 12 -2
12 4 0 6 4 9 9 6 5 -3 15 2 22 11 12 15 12 16 -1 8 -24 -15 -38 -14 -44 2 -3
7 -2 12 3 9 5 -3 12 1 15 10 3 8 2 12 -4 9 -9 -6 -14 7 -11 27 0 4 3 23 5 42
2 20 7 40 10 45 4 5 2 13 -4 16 -6 4 -10 3 -9 -2 3 -20 -2 -34 -11 -28 -5 3
-8 11 -6 18 1 7 1 9 -1 4 -3 -4 -9 -4 -14 -1 -6 3 -5 12 3 22 8 11 4 10 -11
-3 -13 -11 -25 -20 -26 -20 -2 0 -16 11 -32 25 -24 21 -25 22 -9 3 11 -13 14
-23 9 -23 -6 0 -16 6 -23 14 -6 8 -19 12 -27 9 -12 -5 -14 -3 -8 8 7 12 6 12
-7 1 -14 -11 -18 -10 -27 5 -6 11 -11 13 -11 5 0 -7 -4 -11 -9 -8 -10 7 -9 25
1 42 4 6 2 11 -5 11 -8 0 -13 -14 -13 -33 0 -26 4 -31 18 -29 10 2 16 0 13 -5
-3 -5 3 -7 14 -5 15 3 18 -1 14 -13 -5 -14 -3 -15 7 -5 11 10 18 9 33 -5 22
-19 26 -19 39 0 6 9 7 6 3 -9 -3 -12 -1 -24 4 -28 6 -3 8 0 5 8 -4 11 2 14 25
13 16 0 27 -4 24 -9 -2 -4 1 -6 8 -5 19 5 21 -16 4 -37 -16 -19 -16 -19 -6 2
15 30 14 38 -3 24 -10 -9 -16 -9 -21 -1 -5 8 -11 8 -21 -1 -8 -6 -14 -8 -14
-4 0 4 -7 2 -16 -5 -12 -11 -15 -11 -12 1 2 8 -2 13 -9 12 -8 -2 -10 4 -6 15
6 15 3 14 -16 -3 -12 -11 -22 -15 -21 -10 5 24 -2 27 -22 9 -19 -15 -20 -16
-9 -1 7 9 11 18 7 18 -3 1 -11 2 -17 3 -31 3 -42 66 -25 144 3 13 1 20 -5 17
-5 -4 -9 -1 -9 6 0 7 -7 4 -16 -7 -8 -10 -12 -12 -8 -4 6 12 4 13 -7 3 -7 -7
-16 -13 -21 -13 -14 0 -1 89 22 146 22 53 24 55 33 33 6 -13 9 -28 8 -34 -1
-5 6 -2 17 8 10 9 21 16 23 15 2 -2 1 1 -3 7 -12 14 -10 25 4 22 7 -1 12 11
13 30 1 27 -1 30 -14 20 -11 -9 -11 -4 3 17 10 16 13 25 7 22 -15 -10 -14 7 2
23 10 11 10 13 0 7 -16 -9 -16 -1 -2 27 10 21 10 21 -5 3 -9 -11 -16 -15 -16
-9 0 6 -3 20 -6 30 -5 15 -4 16 6 3 9 -12 11 -9 8 17 -3 18 -1 30 4 27 5 -3 6
6 2 20 -4 17 -2 26 6 26 6 0 9 4 6 9 -5 8 13 86 89 379 21 80 40 125 59 142 9
7 16 17 16 22 0 6 -22 49 -50 97 -63 110 -119 255 -126 329 -7 67 12 122 49
141 30 15 161 7 222 -14z m-152 -519 l26 -49 -30 -27 c-16 -16 -29 -34 -29
-41 0 -7 -3 -10 -6 -7 -3 3 2 28 11 56 13 40 14 55 5 72 -10 18 -14 20 -22 9
-8 -11 -8 -10 -4 4 3 10 6 26 6 35 0 22 12 7 43 -52z m-102 -78 c-17 -23 -31
-39 -31 -34 0 4 11 22 25 40 14 18 25 39 26 47 0 10 2 11 6 1 2 -6 -9 -31 -26
-54z m-34 -65 c0 -10 -4 -24 -10 -31 -5 -7 -7 -15 -4 -18 3 -3 -2 -14 -11 -25
-20 -24 -28 -134 -10 -145 7 -4 10 -4 6 0 -11 13 11 61 35 75 20 13 21 13 9
-1 -7 -9 -10 -22 -7 -30 4 -10 -1 -17 -13 -20 -19 -5 -27 -38 -9 -38 5 0 4 -7
-3 -15 -7 -8 -16 -12 -21 -10 -4 3 -8 -3 -8 -12 1 -37 -12 -96 -26 -124 -9
-16 -15 -32 -15 -36 0 -5 -4 -8 -10 -8 -5 0 -10 3 -10 8 0 4 0 12 0 18 0 5 5
7 11 3 7 -4 10 -1 7 7 -3 8 1 21 9 31 11 12 11 18 2 24 -7 4 -10 3 -5 -4 9
-16 -14 -26 -27 -13 -9 9 -7 10 7 5 13 -5 17 -4 12 4 -3 6 -2 13 4 17 6 4 7
11 4 17 -4 6 -2 8 3 5 12 -8 23 14 23 45 0 14 -5 18 -15 14 -22 -8 -18 2 6 15
12 6 19 7 16 2 -4 -5 0 -10 8 -10 11 0 12 4 4 13 -6 7 -19 11 -31 9 -16 -4
-18 -2 -8 10 7 9 10 26 6 42 -5 21 -4 24 4 13 8 -12 10 -11 10 8 0 14 -4 21
-11 17 -7 -5 -8 -1 -1 11 37 75 57 119 58 126 4 24 11 25 11 1z m-92 -462 c3
-5 2 -12 -3 -15 -5 -3 -9 1 -9 9 0 17 3 19 12 6z m101 -133 c4 -7 4 -10 -1 -6
-4 4 -15 2 -24 -5 -14 -11 -14 -10 -2 6 16 20 18 21 27 5z m-1 -27 c3 -5 2
-12 -3 -15 -5 -3 -9 1 -9 9 0 17 3 19 12 6z m12 -66 c0 -8 -4 -12 -9 -9 -5 3
-6 10 -3 15 9 13 12 11 12 -6z m-23 -46 c-3 -5 -10 -7 -15 -3 -5 3 -7 10 -3
15 3 5 10 7 15 3 5 -3 7 -10 3 -15z m87 -296 c13 -16 12 -17 -3 -4 -17 13 -22
21 -14 21 2 0 10 -8 17 -17z m85 -15 c3 -4 -1 -5 -10 -4 -8 1 -18 5 -22 8 -3
4 1 5 10 4 8 -1 18 -5 22 -8z m-185 -15 c13 -16 12 -17 -3 -4 -10 7 -18 15
-18 17 0 8 8 3 21 -13z"/>
<path d="M1192 3098 c-4 -15 -7 -17 -13 -6 -6 9 -9 5 -9 -13 0 -15 -7 -32 -15
-39 -8 -7 -15 -17 -15 -23 0 -5 10 -2 23 9 l22 19 -19 -23 c-13 -15 -23 -19
-30 -12 -6 6 -4 16 8 29 10 11 16 26 13 33 -3 8 -6 6 -6 -5 -1 -10 -6 -15 -11
-12 -6 4 -10 3 -9 -2 1 -4 -1 -16 -6 -26 -4 -9 -3 -23 1 -30 5 -7 1 -4 -9 6
-14 16 -15 22 -5 36 12 14 11 14 -4 2 -16 -12 -16 -15 -2 -43 9 -17 11 -27 5
-24 -10 7 -16 -6 -12 -27 1 -5 -3 -6 -9 -2 -6 4 -7 12 -1 24 15 26 -2 45 -18
20 -9 -16 -10 -19 0 -13 9 5 10 2 6 -10 -4 -10 -7 -25 -7 -34 0 -14 -2 -15 -9
-2 -6 8 -7 19 -4 25 4 5 2 6 -3 2 -5 -5 -9 -16 -9 -25 0 -9 -6 -16 -14 -14 -7
1 -20 -3 -29 -10 -12 -10 -14 -10 -8 0 16 26 -42 -10 -65 -42 -12 -17 -16 -26
-8 -20 44 33 238 47 296 22 40 -18 71 -56 78 -97 7 -44 0 -80 -70 -346 -30
-115 -73 -282 -95 -370 -23 -88 -43 -166 -45 -173 -3 -7 -5 -14 -5 -17 -1 -3
-10 -35 -21 -72 -11 -38 -21 -77 -23 -88 -16 -79 -62 -236 -68 -230 -3 3 -3
-5 -1 -19 l5 -24 42 28 c42 28 59 32 84 17 6 -5 18 -5 25 -1 6 4 9 3 4 -1 -7
-8 20 -45 33 -45 4 0 13 13 20 29 10 26 29 42 52 45 4 1 14 10 22 21 8 11 23
20 33 20 10 0 19 7 19 15 1 8 2 21 3 28 1 15 21 6 21 -9 0 -6 -4 -7 -10 -4 -6
4 -7 -1 -3 -11 6 -15 7 -15 16 1 6 11 5 21 -2 28 -15 15 -14 30 1 21 7 -4 8
-3 4 5 -6 9 -11 9 -21 1 -11 -9 -12 -7 -8 9 3 12 8 19 12 17 3 -2 7 12 8 32 1
21 3 51 5 67 2 17 -1 36 -7 44 -8 12 -7 13 4 6 11 -6 13 -4 8 8 -3 9 -1 19 5
23 6 4 8 3 4 -4 -3 -6 -1 -14 6 -18 7 -4 10 -4 6 1 -4 4 -3 14 3 21 7 8 6 14
-2 20 -8 5 -9 3 -4 -6 5 -8 4 -11 -3 -6 -15 9 -3 38 12 29 6 -3 8 -3 4 2 -4 4
-2 15 5 24 11 14 10 14 -5 2 -11 -8 -18 -9 -18 -3 0 6 3 13 8 15 9 6 8 64 -1
74 -4 3 -1 13 6 21 9 13 9 14 0 8 -9 -5 -13 0 -13 14 0 12 4 18 10 15 6 -3 7
1 3 10 -5 13 -7 14 -14 3 -7 -10 -9 -9 -9 4 0 9 5 20 10 23 6 4 8 10 5 15 -3
5 -1 11 4 14 5 3 7 15 4 26 -3 11 0 20 6 20 5 0 8 7 5 15 -4 8 -1 15 5 15 6 0
8 6 5 13 -3 8 9 65 25 128 16 63 46 177 66 254 20 77 47 159 60 181 27 46 75
91 114 106 25 9 25 10 6 20 -11 6 -28 20 -38 32 -10 11 -16 14 -12 6 5 -11 2
-10 -7 2 -9 11 -19 14 -28 8 -9 -6 -18 -3 -27 10 -8 12 -20 16 -34 13 -18 -5
-20 -3 -14 16 6 21 -1 26 -32 22 -7 -1 -13 4 -13 11 0 8 -5 6 -11 -5 -6 -9
-15 -14 -21 -11 -6 4 -8 2 -4 -4 3 -6 2 -13 -4 -17 -5 -3 -10 -1 -10 5 0 6 -4
8 -10 5 -23 -14 -8 16 15 31 20 13 23 19 14 30 -6 8 -17 14 -24 14 -7 0 -16 7
-19 16 -4 9 -9 14 -13 11 -3 -4 -15 -1 -27 5 -11 7 -25 13 -31 14 -5 2 -21 6
-35 9 -58 14 -72 13 -78 -7z m288 -178 c0 -5 -5 -10 -11 -10 -5 0 -7 5 -4 10
3 6 8 10 11 10 2 0 4 -4 4 -10z m-202 -534 c3 -12 -1 -17 -10 -14 -7 3 -15 13
-16 22 -3 12 1 17 10 14 7 -3 15 -13 16 -22z m-40 -280 c-20 -15 -24 -31 -5
-20 8 5 8 3 -2 -9 -7 -9 -17 -15 -21 -12 -4 2 -7 -5 -6 -17 1 -28 -20 -35 -27
-8 -3 13 -1 18 6 13 6 -4 8 0 4 10 -6 16 36 56 58 56 6 0 2 -6 -7 -13z m112
-110 c0 -2 -7 -7 -16 -10 -8 -3 -12 -2 -9 4 6 10 25 14 25 6z m6 -28 c4 -7 4
-10 -1 -6 -4 4 -15 2 -24 -5 -14 -11 -14 -10 -2 6 16 20 18 21 27 5z m-45 -61
c-10 -9 -11 -8 -5 6 3 10 9 15 12 12 3 -3 0 -11 -7 -18z"/>
<path d="M1951 2573 c-26 -91 -82 -312 -86 -343 -1 -14 -12 -53 -24 -88 l-20
-63 30 -42 c25 -36 31 -56 36 -119 3 -46 1 -89 -6 -109 -6 -18 -9 -34 -7 -37
8 -7 32 59 39 105 8 46 47 122 47 91 0 -10 5 -18 11 -18 6 0 8 -8 4 -19 -17
-55 -30 -201 -17 -201 5 0 13 -11 16 -25 4 -14 11 -23 16 -20 6 3 10 1 10 -6
0 -20 19 3 23 28 2 12 14 31 28 42 27 21 31 49 11 73 -8 10 -8 18 -1 25 8 8 7
13 -2 18 -7 5 -10 4 -5 -3 3 -6 2 -13 -3 -16 -11 -7 -9 -23 8 -56 11 -23 11
-24 -3 -6 -11 13 -16 15 -16 6 0 -19 -10 -7 -15 18 -2 12 0 24 6 27 5 4 6 18
3 32 -6 21 -4 24 7 18 12 -8 12 -6 0 8 -9 12 -10 21 -4 30 6 6 9 21 7 32 -9
50 71 251 151 379 25 40 45 75 45 77 0 2 -11 5 -25 5 -14 1 -22 -2 -19 -7 12
-20 -9 -7 -28 16 -13 16 -28 25 -42 23 -16 -2 -21 2 -19 18 2 17 -2 20 -22 16
-25 -4 -35 11 -15 23 6 4 4 15 -6 30 -13 20 -20 22 -39 15 -29 -11 -39 0 -41
48 -2 54 -12 47 -33 -25z m89 -143 c0 -5 -2 -10 -4 -10 -3 0 -8 5 -11 10 -3 6
-1 10 4 10 6 0 11 -4 11 -10z m-115 -220 c19 -8 18 -9 -4 -9 -19 -1 -21 -4
-12 -15 15 -17 62 -9 54 10 -3 8 0 14 6 14 6 0 11 -4 11 -9 0 -5 8 -7 18 -4
10 2 28 -5 40 -16 l23 -20 -45 -6 c-24 -4 -51 -3 -58 1 -10 6 -10 5 0 -9 12
-14 10 -20 -12 -40 -14 -13 -26 -30 -26 -37 0 -10 -3 -10 -16 1 -13 11 -13 15
-2 23 21 18 18 48 -8 68 -26 21 -31 43 -11 51 16 7 19 7 42 -3z m65 -129 c0
-10 -8 -29 -18 -41 -16 -20 -20 -21 -25 -7 -3 9 3 27 14 41 24 31 29 32 29 7z"/>
<path d="M2563 2038 c-14 -18 -24 -86 -13 -93 16 -10 31 24 29 64 -3 46 -3 46
-16 29z"/>
<path d="M1804 2013 c-3 -16 -15 -58 -25 -94 -10 -36 -19 -85 -19 -108 0 -22
-4 -41 -10 -41 -5 0 -10 -7 -10 -15 0 -24 27 -18 55 12 24 27 31 51 26 102 -2
22 -1 23 15 10 16 -13 17 -10 10 41 -11 91 -18 120 -27 120 -5 0 -11 -12 -15
-27z"/>
<path d="M1734 1686 c-10 -8 -16 -17 -13 -20 3 -3 14 1 25 8 10 8 16 17 13 20
-3 3 -14 -1 -25 -8z"/>
<path d="M670 1681 c0 -5 5 -13 10 -16 6 -3 10 -2 10 4 0 5 -4 13 -10 16 -5 3
-10 2 -10 -4z"/>
<path d="M700 1671 c0 -6 4 -13 10 -16 6 -3 7 1 4 9 -7 18 -14 21 -14 7z"/>
<path d="M736 1661 c-4 -5 -2 -12 3 -15 5 -4 12 -2 15 3 4 5 2 12 -3 15 -5 4
-12 2 -15 -3z"/>
<path d="M780 1641 c0 -6 4 -13 10 -16 6 -3 7 1 4 9 -7 18 -14 21 -14 7z"/>
<path d="M1727 3379 c-4 -14 -2 -18 6 -11 16 13 49 12 67 -2 10 -7 10 -4 -2 9
-24 28 -64 30 -71 4z"/>
<path d="M2780 3052 c0 -5 -12 -13 -26 -16 -21 -6 -24 -9 -14 -21 17 -20 25
-19 38 8 l11 22 7 -22 c3 -13 13 -23 21 -23 10 0 11 5 4 18 -13 24 -41 47 -41
34z"/>
<path d="M2951 2833 c-10 -11 -10 -18 -2 -26 8 -8 11 -8 11 1 0 7 5 12 11 12
5 0 8 -4 5 -8 -2 -4 6 -9 20 -10 30 -2 30 0 -4 25 -24 17 -29 18 -41 6z"/>
<path d="M3050 2832 c0 -15 18 -34 29 -31 7 3 3 11 -9 21 -11 10 -20 14 -20
10z"/>
<path d="M3188 2793 c7 -3 16 -2 19 1 4 3 -2 6 -13 5 -11 0 -14 -3 -6 -6z"/>
<path d="M3270 2781 c80 -27 132 -51 155 -69 20 -17 20 -17 0 6 -25 30 -107
68 -165 76 l-45 6 55 -19z"/>
<path d="M2596 2751 c-3 -5 5 -16 19 -25 27 -18 32 -11 11 17 -15 19 -22 21
-30 8z"/>
<path d="M2406 2702 c-3 -6 -1 -14 5 -17 14 -9 20 -2 10 14 -6 8 -11 9 -15 3z"/>
<path d="M2570 2696 c0 -9 7 -16 16 -16 9 0 14 5 12 12 -6 18 -28 21 -28 4z"/>
<path d="M2540 2685 c0 -8 5 -15 10 -15 6 0 10 7 10 15 0 8 -4 15 -10 15 -5 0
-10 -7 -10 -15z"/>
<path d="M2508 2653 c7 -3 16 -2 19 1 4 3 -2 6 -13 5 -11 0 -14 -3 -6 -6z"/>
<path d="M2460 2625 c-10 -12 -10 -15 4 -15 9 0 16 7 16 15 0 8 -2 15 -4 15
-2 0 -9 -7 -16 -15z"/>
<path d="M3335 2560 c-161 -24 -425 -132 -544 -223 -70 -54 -148 -134 -154
-159 -4 -12 -1 -18 6 -15 7 2 21 1 32 -3 11 -4 34 -2 52 6 28 11 35 11 48 -2
13 -14 15 -13 15 8 0 35 38 110 52 102 7 -5 9 0 6 14 -4 15 -2 22 9 22 8 0 12
4 9 8 -2 4 -1 14 4 22 8 13 13 13 31 2 23 -15 22 -15 37 14 11 20 33 24 83 15
4 -1 12 -14 19 -30 7 -17 17 -28 25 -25 8 3 14 -8 19 -34 7 -49 42 -65 56 -27
5 13 13 26 19 30 7 4 8 0 4 -11 -5 -14 -3 -15 16 -5 12 7 24 18 27 26 4 8 15
12 31 9 l26 -5 -7 70 -7 70 68 34 c46 22 73 43 86 65 22 37 25 36 -68 22z"/>
<path d="M3000 2357 c0 -23 11 -47 21 -47 15 0 10 37 -6 50 -12 10 -15 10 -15
-3z"/>
<path d="M2997 2290 c3 -11 9 -20 15 -20 5 0 4 9 -2 20 -6 11 -12 20 -14 20
-2 0 -2 -9 1 -20z"/>
<path d="M2957 2280 c-19 -22 -22 -35 -7 -25 6 3 10 2 10 -4 0 -5 -5 -13 -11
-16 -7 -5 -5 -13 5 -24 10 -11 12 -21 6 -31 -14 -22 -12 -30 9 -30 10 0 21 8
25 18 3 9 9 24 12 32 5 12 4 13 -6 3 -11 -10 -16 -8 -25 10 -7 12 -9 27 -6 32
6 12 13 55 9 55 -2 0 -11 -9 -21 -20z"/>
<path d="M3259 2120 c0 -8 -2 -24 -4 -35 -10 -50 -16 -103 -15 -131 1 -49 -37
-213 -70 -302 -33 -92 -34 -96 -20 -87 20 12 73 159 94 260 25 120 38 276 25
297 -7 10 -9 10 -10 -2z"/>
<path d="M3223 2030 c0 -25 2 -35 4 -22 2 12 2 32 0 45 -2 12 -4 2 -4 -23z"/>
<path d="M3076 1994 c-3 -9 -12 -14 -19 -11 -16 6 -49 -91 -46 -133 1 -14 -1
-37 -5 -51 -5 -18 -3 -29 8 -38 9 -8 16 -20 16 -27 0 -8 5 -14 10 -14 6 0 10
-7 10 -15 0 -8 5 -15 10 -15 6 0 10 -5 10 -10 0 -21 39 -53 56 -46 14 5 14 9
3 24 -13 15 -12 16 4 3 9 -8 19 -12 21 -10 6 8 26 123 25 148 0 25 0 26 -9 4
-6 -14 -15 -21 -24 -17 -8 3 -17 1 -21 -5 -9 -16 -32 -13 -39 4 -8 22 32 85
56 85 10 0 16 5 13 10 -3 6 -3 20 0 31 6 17 9 19 16 8 6 -10 9 -6 9 14 0 19
-4 26 -12 21 -7 -4 -8 -3 -4 4 4 7 -2 21 -12 32 -18 20 -20 20 -26 3 -7 -17
-8 -17 -17 0 -12 21 -25 22 -33 1z"/>
<path d="M2700 1787 c0 -8 7 -17 15 -21 9 -3 12 -12 8 -22 -5 -14 -2 -16 14
-12 16 4 19 2 16 -13 -3 -11 0 -19 6 -19 6 0 11 7 11 15 0 22 -30 78 -37 71
-4 -3 -12 -1 -20 5 -10 9 -13 8 -13 -4z"/>
<path d="M2665 1740 c3 -5 10 -10 16 -10 5 0 9 5 9 10 0 6 -7 10 -16 10 -8 0
-12 -4 -9 -10z"/>
<path d="M2777 1696 c-4 -10 -5 -21 -2 -24 9 -9 17 6 13 25 -3 17 -4 17 -11
-1z"/>
<path d="M2686 1665 c4 -8 11 -15 16 -15 6 0 5 6 -2 15 -7 8 -14 15 -16 15 -2
0 -1 -7 2 -15z"/>
<path d="M2785 1662 c-2 -2 -1 -10 2 -18 4 -12 8 -11 20 3 8 10 11 12 7 4 -5
-10 -3 -12 7 -6 8 5 11 5 7 0 -4 -4 -2 -15 5 -24 11 -14 10 -14 -5 -2 -10 7
-18 9 -18 3 0 -5 7 -12 15 -16 22 -8 18 -25 -7 -35 -21 -8 -20 -10 20 -30 23
-12 48 -19 53 -15 6 4 14 2 18 -4 11 -18 61 -26 61 -10 0 25 -30 58 -47 51
-13 -5 -15 -2 -10 11 4 10 3 15 -3 11 -6 -3 -10 -1 -10 5 0 6 -5 8 -12 4 -6
-4 -8 -3 -5 3 4 6 0 16 -8 23 -15 13 -21 3 -15 -25 1 -5 -2 -7 -6 -2 -11 10
-13 47 -2 41 4 -3 8 0 8 5 0 6 0 14 0 18 0 7 -68 12 -75 5z"/>
<path d="M2018 1572 c-7 -18 -19 -32 -28 -32 -13 -1 -13 -2 1 -13 9 -7 14 -18
12 -24 -3 -7 1 -13 8 -13 8 0 6 -7 -6 -20 -17 -19 -17 -20 5 -28 20 -7 21 -10
8 -22 -13 -13 -12 -16 10 -27 13 -7 34 -13 46 -13 20 -1 20 -1 3 -15 -11 -7
-26 -11 -35 -8 -13 3 -13 1 2 -11 23 -18 43 -21 48 -5 2 5 15 -2 28 -17 22
-24 23 -26 5 -20 -13 5 -17 4 -10 -3 6 -5 22 -12 37 -15 48 -8 65 -30 31 -39
-13 -3 -11 -5 6 -6 21 -1 23 -5 18 -34 -3 -19 -1 -40 4 -48 6 -10 9 -4 9 20 0
27 3 32 18 27 14 -5 14 -4 -2 9 -19 14 -19 15 8 15 19 0 29 -6 33 -20 6 -21
29 -27 35 -9 2 7 12 6 28 -3 19 -10 24 -20 22 -40 -4 -30 12 -38 22 -13 6 17
36 21 36 5 0 -5 -4 -10 -10 -10 -5 0 -10 -5 -10 -10 0 -6 -12 -23 -26 -38 -14
-15 -37 -49 -50 -76 -27 -52 -22 -73 15 -61 15 5 19 11 13 22 -17 29 1 64 61
118 33 30 65 55 70 55 5 0 16 8 24 18 14 16 14 16 9 -1 -5 -16 0 -17 47 -11
57 7 54 7 80 5 15 -1 15 -3 -3 -21 -40 -40 -9 -57 52 -28 49 24 66 23 44 -1
-16 -18 -16 -18 10 -13 25 4 25 3 14 -19 -11 -20 -8 -19 26 9 21 17 68 59 104
92 36 33 85 73 110 87 25 15 53 33 62 41 16 14 16 16 -8 35 -29 22 -75 29 -86
13 -5 -8 -8 -7 -8 1 0 9 -8 9 -32 1 -18 -5 -43 -11 -55 -12 -12 -1 -25 -5 -29
-9 -4 -3 -14 -2 -24 3 -10 5 -20 6 -24 3 -3 -4 -34 -7 -69 -7 -34 -1 -67 -5
-74 -9 -6 -4 -14 -3 -18 2 -3 5 -18 9 -33 7 -15 -1 -33 2 -41 8 -11 8 -13 8
-7 -1 5 -9 2 -11 -8 -7 -9 3 -16 11 -16 18 0 7 -4 6 -9 -3 -6 -9 -10 -10 -16
-2 -5 9 -10 9 -20 1 -9 -8 -14 -6 -19 6 -5 13 -9 14 -21 4 -14 -11 -19 -7 -16
13 1 4 -8 3 -18 -3 -16 -8 -23 -6 -35 12 -10 14 -16 17 -16 8 0 -10 -5 -8 -16
6 -8 10 -12 12 -8 4 4 -8 -8 -1 -27 15 -18 17 -29 23 -24 15 6 -10 4 -9 -6 2
-9 9 -19 14 -23 11 -3 -4 -6 -1 -6 6 0 7 -5 9 -10 6 -6 -4 -9 -2 -8 3 4 12
-73 96 -92 101 -8 2 -27 4 -41 5 -15 1 -36 10 -48 20 -21 19 -21 19 -33 -12z"/>
<path d="M1948 1448 c9 -9 15 -9 24 0 9 9 7 12 -12 12 -19 0 -21 -3 -12 -12z"/>
<path d="M1630 1400 c0 -5 4 -10 9 -10 6 0 13 5 16 10 3 6 -1 10 -9 10 -9 0
-16 -4 -16 -10z"/>
<path d="M1594 1389 c-5 -8 -3 -9 6 -4 9 5 11 4 6 -3 -5 -9 -13 -9 -28 -1 -16
9 -19 8 -13 -2 6 -9 3 -11 -8 -6 -9 3 -19 2 -22 -3 -3 -4 -13 -7 -23 -5 -9 1
-23 -3 -31 -9 -12 -9 -13 -8 -6 3 6 11 5 12 -6 5 -15 -9 -32 -14 -64 -17 -11
-2 -26 -7 -34 -11 -10 -7 -12 -5 -6 3 6 10 3 11 -15 1 -12 -6 -28 -9 -36 -6
-8 3 -14 2 -14 -2 0 -4 -16 -9 -37 -10 -20 -2 -39 -5 -43 -7 -4 -3 -15 4 -25
15 -21 24 -40 16 -90 -38 -27 -30 -31 -40 -22 -51 10 -12 9 -13 -3 -6 -21 11
-4 -4 54 -51 28 -21 46 -32 41 -24 -4 8 4 4 20 -10 16 -14 25 -19 21 -13 -5 9
-2 11 8 7 9 -3 14 -9 11 -13 -2 -4 2 -8 9 -8 8 0 12 7 9 16 -4 13 -2 13 6 -1
6 -9 20 -15 31 -13 13 3 17 -1 13 -12 -5 -12 -7 -12 -14 -1 -5 7 -9 8 -9 2 0
-18 12 -24 26 -13 9 8 11 5 7 -10 -3 -12 -9 -19 -13 -16 -5 3 -11 1 -14 -4 -4
-5 1 -8 10 -7 8 1 19 8 23 14 4 8 11 5 19 -8 8 -14 9 -21 0 -26 -7 -5 -8 -3
-3 6 6 9 4 11 -5 5 -9 -5 -4 -15 19 -34 17 -15 31 -31 31 -36 0 -6 -5 -3 -10
5 -5 8 -10 10 -10 4 0 -6 7 -17 15 -24 8 -7 15 -9 15 -4 0 5 5 2 11 -6 9 -13
10 -13 6 0 -2 8 -10 14 -16 12 -7 -1 -9 2 -5 9 10 16 47 -28 37 -45 -3 -6 3
-2 15 8 18 16 20 22 9 35 -11 14 -10 15 7 1 22 -17 46 -22 46 -9 0 18 -5 24
-16 21 -6 -1 -11 4 -11 13 0 8 4 12 8 10 4 -3 6 2 5 11 -1 9 -12 22 -25 28
-12 7 -18 16 -14 21 4 5 0 3 -10 -4 -14 -11 -20 -12 -30 -2 -9 10 -8 11 8 5
18 -6 18 -5 -2 15 -23 22 -32 48 -13 36 6 -3 10 1 10 10 0 9 4 14 9 11 13 -9
171 130 175 154 1 8 10 29 19 46 14 27 14 34 3 43 -11 9 -16 9 -22 0z m-143
-356 c13 -16 12 -17 -3 -4 -17 13 -22 21 -14 21 2 0 10 -8 17 -17z"/>
<path d="M1980 1366 c0 -2 7 -9 15 -16 9 -7 15 -8 15 -2 0 5 -7 12 -15 16 -8
3 -15 4 -15 2z"/>
<path d="M830 1278 c-15 -6 -86 -8 -183 -5 -150 4 -158 3 -168 -16 -7 -12 -7
-17 -1 -13 6 3 12 3 15 -1 2 -5 2 -1 0 7 -2 8 6 4 18 -10 11 -14 17 -18 13
-10 -6 12 -5 13 8 3 8 -7 18 -10 21 -6 4 3 7 0 7 -7 0 -7 3 -10 7 -7 3 4 13 1
21 -6 13 -10 14 -9 7 2 -6 11 -5 12 6 5 8 -5 25 -9 39 -9 14 0 30 -3 35 -6 10
-6 41 -4 80 4 11 2 26 -1 34 -7 11 -8 13 -8 7 2 -5 8 -1 12 11 12 11 0 25 6
31 12 10 10 15 10 21 -1 6 -9 11 -10 15 -2 4 6 13 8 19 4 7 -3 3 3 -7 15 -21
24 -32 29 -20 10 4 -6 3 -8 -4 -5 -5 4 -8 16 -5 27 6 23 7 22 -27 8z"/>
<path d="M2564 971 c-2 -2 -31 -4 -65 -4 -46 0 -72 -6 -103 -23 -62 -35 -82
-43 -121 -46 -19 -1 -35 -6 -35 -10 0 -8 89 -14 120 -9 8 2 34 4 56 5 37 1
188 68 200 87 4 7 -45 7 -52 0z"/>
<path d="M1960 946 c0 -2 7 -7 16 -10 8 -3 12 -2 9 4 -6 10 -25 14 -25 6z"/>
<path d="M2216 931 c-26 -29 -2 -34 24 -6 18 19 20 25 8 25 -8 0 -23 -9 -32
-19z"/>
<path d="M2148 863 c-10 -2 -18 -8 -18 -13 0 -16 25 -17 48 -2 20 13 22 13 22
-2 0 -10 6 -14 18 -10 9 3 6 -2 -8 -10 l-25 -16 25 3 c14 1 30 5 35 8 6 4 22
9 38 13 15 3 27 11 27 17 0 6 -6 7 -12 2 -20 -12 -51 -14 -57 -4 -7 11 -70 21
-93 14z"/>
</g>
</svg>
